<?xml version="1.0" encoding="UTF-8"?>
<svg id="Ebene_1" xmlns="http://www.w3.org/2000/svg" viewBox="0 0 4106.1 1731.36">
  <defs>
    <style>
      .cls-1 {
        fill: #1d1d1b;
        stroke: #1d1d1b;
        stroke-miterlimit: 10;
      }

      .cls-2 {
        stroke: #020404;
      }

      .cls-2, .cls-3, .cls-4, .cls-5, .cls-6, .cls-7, .cls-8 {
        fill: none;
      }

      .cls-2, .cls-4, .cls-5, .cls-6, .cls-7, .cls-8 {
        stroke-linecap: round;
        stroke-linejoin: round;
      }

      .cls-2, .cls-4, .cls-6, .cls-7, .cls-8 {
        stroke-width: 16.5px;
      }

      .cls-4 {
        stroke: #020303;
      }

      .cls-5 {
        stroke-width: 18.14px;
      }

      .cls-5, .cls-8 {
        stroke: #020304;
      }

      .cls-6 {
        stroke: #030404;
      }

      .cls-7 {
        stroke: #020405;
      }
    </style>
  </defs>
  <g>
    <path d="M4.08,1.96h1.04v7.21h3.45v.88h-4.5V1.96Z"/>
    <path d="M8.83,19.09c0,2.15-1.49,3.08-2.89,3.08-1.57,0-2.78-1.15-2.78-2.99,0-1.94,1.27-3.08,2.88-3.08s2.79,1.21,2.79,2.99ZM4.23,19.15c0,1.27.73,2.23,1.76,2.23s1.76-.95,1.76-2.25c0-.98-.49-2.23-1.74-2.23s-1.79,1.15-1.79,2.25Z"/>
    <path d="M4.91,30.05c0-.68-.01-1.27-.05-1.81h.92l.04,1.14h.05c.26-.78.9-1.27,1.61-1.27.12,0,.2.01.3.04v1c-.11-.02-.22-.04-.36-.04-.74,0-1.27.56-1.42,1.36-.02.14-.05.31-.05.49v3.09h-1.04v-3.99Z"/>
    <path d="M4.46,43.33c.02,1.43.94,2.01,1.99,2.01.76,0,1.21-.13,1.61-.3l.18.76c-.37.17-1.01.36-1.93.36-1.79,0-2.85-1.18-2.85-2.93s1.03-3.13,2.72-3.13c1.9,0,2.4,1.67,2.4,2.73,0,.22-.02.38-.04.49h-4.08ZM7.55,42.58c.01-.67-.28-1.71-1.46-1.71-1.07,0-1.54.98-1.62,1.71h3.08Z"/>
    <path d="M1.87,53.81c0-.6-.01-1.09-.05-1.57h.92l.05.94h.04c.32-.55.86-1.07,1.82-1.07.79,0,1.39.48,1.64,1.16h.02c.18-.32.41-.58.65-.76.35-.26.73-.41,1.28-.41.77,0,1.91.5,1.91,2.52v3.42h-1.03v-3.29c0-1.12-.41-1.79-1.26-1.79-.6,0-1.07.44-1.25.96-.05.14-.08.34-.08.53v3.59h-1.03v-3.48c0-.92-.41-1.6-1.21-1.6-.66,0-1.14.53-1.31,1.06-.06.16-.08.34-.08.52v3.5h-1.03v-4.23Z"/>
    <path d="M6.65,65.15c.01.36-.25.65-.67.65-.37,0-.64-.29-.64-.65s.28-.66.66-.66.65.29.65.66ZM5.47,72.59v-5.8h1.06v5.8h-1.06Z"/>
    <path d="M3.46,80.68c0-.74-.02-1.34-.05-1.9h.95l.05,1h.02c.43-.71,1.12-1.13,2.06-1.13,1.4,0,2.46,1.19,2.46,2.95,0,2.09-1.27,3.12-2.64,3.12-.77,0-1.44-.34-1.79-.91h-.02v3.15h-1.04v-6.28ZM4.5,82.23c0,.16.02.3.05.43.19.73.83,1.24,1.58,1.24,1.12,0,1.76-.91,1.76-2.24,0-1.16-.61-2.16-1.73-2.16-.72,0-1.39.52-1.6,1.31-.04.13-.07.29-.07.43v1Z"/>
    <path d="M4.36,95.51c.31.2.86.42,1.39.42.77,0,1.13-.38,1.13-.86,0-.5-.3-.78-1.08-1.07-1.04-.37-1.54-.95-1.54-1.64,0-.94.76-1.7,2-1.7.59,0,1.1.17,1.43.36l-.26.77c-.23-.14-.65-.34-1.19-.34-.62,0-.97.36-.97.79,0,.48.35.7,1.1.98,1.01.38,1.52.89,1.52,1.75,0,1.02-.79,1.74-2.17,1.74-.64,0-1.22-.16-1.63-.4l.26-.8Z"/>
    <path d="M8.43,107c0,.6.01,1.13.05,1.58h-.94l-.06-.95h-.02c-.28.47-.89,1.08-1.92,1.08-.91,0-2-.5-2-2.54v-3.39h1.06v3.21c0,1.1.34,1.85,1.3,1.85.71,0,1.2-.49,1.39-.96.06-.16.1-.35.1-.54v-3.56h1.06v4.22Z"/>
    <path d="M1.87,116.35c0-.6-.01-1.09-.05-1.57h.92l.05.94h.04c.32-.55.86-1.07,1.82-1.07.79,0,1.39.48,1.64,1.16h.02c.18-.32.41-.58.65-.76.35-.26.73-.41,1.28-.41.77,0,1.91.5,1.91,2.52v3.42h-1.03v-3.29c0-1.12-.41-1.79-1.26-1.79-.6,0-1.07.44-1.25.96-.05.14-.08.34-.08.53v3.59h-1.03v-3.48c0-.92-.41-1.6-1.21-1.6-.66,0-1.14.53-1.31,1.06-.06.16-.08.34-.08.52v3.5h-1.03v-4.23Z"/>
  </g>
  <g id="Generatives_Objekt">
    <path class="cls-5" d="M1693.66,640.29c202.79-7.54,332.55,218.08,226.28,393.47-95.04,156.85-317.41,165.12-423.51,15.74-118.61-166.99-5.51-401.68,197.23-409.21Z"/>
    <path class="cls-8" d="M1700.53,685.23c167.28-2,269.86,186.4,179.09,328.98-91.03,142.98-303.28,124.97-369.64-31.37-59.23-139.54,40.81-295.83,190.55-297.61Z"/>
    <line class="cls-8" x1="1525.52" y1="898.82" x2="1547.14" y2="898.34"/>
    <line class="cls-8" x1="1545.75" y1="806.12" x2="1568.48" y2="820.22"/>
    <line class="cls-6" x1="1565.32" y1="979.84" x2="1548.73" y2="988.92"/>
    <line class="cls-2" x1="1614.4" y1="742.67" x2="1623.7" y2="759.86"/>
    <line class="cls-8" x1="1622.83" y1="1038.16" x2="1614.36" y2="1055.26"/>
    <line class="cls-5" x1="1680.52" y1="884.82" x2="1568.48" y2="820.22"/>
    <line class="cls-5" x1="1681.43" y1="903.27" x2="1579.48" y2="920.07"/>
    <path class="cls-5" d="M1725,897.99c0-29.69-44.83-29.3-44.11.54.71,29.17,44.11,28.44,44.11-.54Z"/>
    <line class="cls-4" x1="1702.58" y1="721.41" x2="1703.45" y2="741.37"/>
    <line class="cls-4" x1="1702.31" y1="1051.61" x2="1703.6" y2="1080.54"/>
    <line class="cls-4" x1="1794.48" y1="739.81" x2="1780.59" y2="762.87"/>
    <line class="cls-6" x1="1782.98" y1="1038.25" x2="1792.16" y2="1054.95"/>
    <line class="cls-7" x1="1860.24" y1="806.18" x2="1836.75" y2="820.2"/>
    <line class="cls-2" x1="1858.31" y1="989.74" x2="1841.56" y2="979.95"/>
    <line class="cls-8" x1="1883.4" y1="897.9" x2="1854.89" y2="899.16"/>
  </g>
  <g>
    <rect class="cls-3" x="1957.95" y="619.77" width="1417.53" height="506.55"/>
    <path class="cls-1" d="M2010.92,650.43c29.27-4.88,67.61-9.06,116.4-9.06,59.94,0,103.85,13.94,131.73,39.03,25.79,22.3,41.12,56.46,41.12,98.28s-12.55,75.97-36.24,100.37c-32.06,34.15-84.34,51.58-143.58,51.58-18.12,0-34.85-.7-48.79-4.18v188.19h-60.64v-464.21ZM2071.56,876.95c13.24,3.48,29.97,4.88,50.18,4.88,73.19,0,117.79-35.55,117.79-100.37s-43.91-92-110.82-92c-26.49,0-46.7,2.09-57.15,4.88v182.62Z"/>
    <path class="cls-1" d="M2680.74,894.38h-182.62v169.37h203.53v50.88h-264.17v-469.78h253.71v50.88h-193.07v148.46h182.62v50.18Z"/>
    <path class="cls-1" d="M2836.16,1114.63v-469.78h66.22l150.55,237.68c34.85,55.06,62.03,104.55,84.34,152.64l1.39-.7c-5.58-62.73-6.97-119.89-6.97-193.07v-196.56h57.15v469.78h-61.34l-149.16-238.38c-32.76-52.28-64.12-105.95-87.82-156.83l-2.09.7c3.49,59.25,4.88,115.7,4.88,193.77v200.74h-57.15Z"/>
  </g>
  <rect class="cls-3" x="3857.55" y="983.87" width="4.09" height="0"/>
  <rect class="cls-3" x="1267.6" y="616.21" width="12.26" height="110.3"/>
  <g>
    <rect class="cls-3" x="1447.53" y="1175.79" width="2658.57" height="555.57"/>
    <path d="M1762.61,1572.07c-18.43,9.22-55.3,18.43-102.53,18.43-109.44,0-191.81-69.12-191.81-196.42s82.37-203.91,202.75-203.91c48.38,0,78.91,10.37,92.16,17.28l-12.1,40.9c-19.01-9.22-46.08-16.13-78.34-16.13-91.01,0-151.49,58.18-151.49,160.13,0,95.04,54.72,156.1,149.19,156.1,30.53,0,61.63-6.34,81.79-16.13l10.37,39.74Z"/>
    <path d="M1849,1196.52h50.11v346.18h165.89v42.05h-216v-388.23Z"/>
    <path d="M2476.26,1386.6c0,133.63-81.22,204.48-180.29,204.48s-174.53-79.49-174.53-196.99c0-123.26,76.61-203.91,180.29-203.91s174.53,81.22,174.53,196.42ZM2175.01,1392.93c0,82.94,44.93,157.25,123.84,157.25s124.42-73.15,124.42-161.28c0-77.18-40.32-157.82-123.84-157.82s-124.42,76.61-124.42,161.86Z"/>
    <path d="M2836.25,1572.07c-18.43,9.22-55.3,18.43-102.53,18.43-109.44,0-191.81-69.12-191.81-196.42s82.37-203.91,202.75-203.91c48.38,0,78.91,10.37,92.16,17.28l-12.1,40.9c-19.01-9.22-46.08-16.13-78.34-16.13-91.01,0-151.49,58.18-151.49,160.13,0,95.04,54.72,156.1,149.18,156.1,30.53,0,61.63-6.34,81.79-16.13l10.37,39.74Z"/>
    <path d="M2922.64,1196.52h50.11v187.2h1.73c10.37-14.98,20.74-28.8,30.53-41.47l118.66-145.73h62.21l-140.54,164.74,151.49,223.49h-59.33l-127.87-190.66-36.86,42.62v148.03h-50.11v-388.23Z"/>
  </g>
</svg>